# xmcd CD database file
#
# Track frame offsets:
#	150
#	19902
#	37344
#	56931
#	83713
#	106238
#	124504
#	144063
#
# Disc length: 2150 seconds
#
# Revision: 0
# Processed by: cddbd v1.5.1PL2 Copyright (c) Steve Scherf et al.
# Submitted via: CDex 1.51
#
DISCID=66086408
DTITLE=Tumbleweed Town - After The Storm And Fires
DYEAR=2005
DGENRE=Country
TTITLE0=A Minor
TTITLE1=Leaf In The Wind
TTITLE2=This Night
TTITLE3=Road Of Atonement
TTITLE4=Dream About Hope (A Sleeping Beauty)
TTITLE5=A Crumbling Mountain
TTITLE6=The Vehicle
TTITLE7=3 a.m. (A Star In The Sky)
EXTD=YEAR: 2005
EXTT0=
EXTT1=
EXTT2=
EXTT3=
EXTT4=
EXTT5=
EXTT6=
EXTT7=
PLAYORDER=
